<svg width="45" height="45" viewBox="0 0 45 45" fill="none" xmlns="http://www.w3.org/2000/svg">
<rect y="0.75" width="44.3365" height="43.5" rx="12.6413" fill="white"/>
<path d="M24.7562 32.5396C23.9804 32.5396 23.3516 31.9107 23.3516 31.135V15.1165C23.3516 14.3408 23.9804 13.7119 24.7562 13.7119H30.8419C32.2819 13.7119 33.5086 13.9846 34.5222 14.5301C35.5357 15.0694 36.3083 15.8202 36.8397 16.7824C37.3774 17.7385 37.6463 18.8417 37.6463 20.092C37.6463 21.3423 37.3743 22.4454 36.8305 23.4015C36.2866 24.3576 35.4987 25.1023 34.4666 25.6355C33.4407 26.1687 32.1985 26.4353 30.7399 26.4353H27.3704C26.5946 26.4353 25.9658 25.8064 25.9658 25.0307V24.6498C25.9658 23.8741 26.5946 23.2453 27.3704 23.2453H30.091C30.8635 23.2453 31.5001 23.1135 32.0007 22.8499C32.5075 22.5803 32.8844 22.2095 33.1317 21.7376C33.385 21.2595 33.5117 20.711 33.5117 20.092C33.5117 19.4669 33.385 18.9214 33.1317 18.4556C32.8844 17.9837 32.5075 17.619 32.0007 17.3616C31.4939 17.0981 30.8512 16.9663 30.0725 16.9663H28.7702C27.9944 16.9663 27.3656 17.5952 27.3656 18.3709V31.135C27.3656 31.9107 26.7367 32.5396 25.961 32.5396H24.7562Z" fill="#802642"/>
<mask id="path-3-outside-1_1_918" maskUnits="userSpaceOnUse" x="7.42969" y="12.123" width="20" height="21" fill="black">
<rect fill="white" x="7.42969" y="12.123" width="20" height="21"/>
<path d="M25.4278 24.5312C26.3456 24.7751 26.9039 25.7288 26.4927 26.5848C25.7618 28.1066 24.6271 29.4161 23.1963 30.3642C21.2814 31.633 18.9667 32.1683 16.6834 31.8702C14.4 31.5721 12.3039 30.461 10.7854 28.7438C9.26692 27.0267 8.42969 24.8208 8.42969 22.5369C8.42969 20.253 9.26692 18.047 10.7854 16.3299C12.3039 14.6128 14.4 13.5017 16.6834 13.2036C18.9667 12.9055 21.2814 13.4407 23.1963 14.7096C24.6271 15.6577 25.7618 16.9671 26.4927 18.4889C26.9039 19.3449 26.3456 20.2986 25.4278 20.5425C24.5154 20.785 23.5976 20.2234 23.1048 19.4182C22.6491 18.6735 22.032 18.0299 21.2903 17.5384C20.0674 16.7281 18.5893 16.3864 17.1312 16.5767C15.6731 16.7671 14.3345 17.4766 13.3648 18.5732C12.3951 19.6697 11.8604 21.0784 11.8604 22.5369C11.8604 23.9953 12.3951 25.4041 13.3648 26.5006C14.3345 27.5971 15.6731 28.3067 17.1312 28.497C18.5893 28.6874 20.0674 28.3456 21.2903 27.5353C22.032 27.0438 22.6491 26.4003 23.1048 25.6556C23.5976 24.8503 24.5154 24.2888 25.4278 24.5312Z"/>
</mask>
<path d="M25.4278 24.5312C26.3456 24.7751 26.9039 25.7288 26.4927 26.5848C25.7618 28.1066 24.6271 29.4161 23.1963 30.3642C21.2814 31.633 18.9667 32.1683 16.6834 31.8702C14.4 31.5721 12.3039 30.461 10.7854 28.7438C9.26692 27.0267 8.42969 24.8208 8.42969 22.5369C8.42969 20.253 9.26692 18.047 10.7854 16.3299C12.3039 14.6128 14.4 13.5017 16.6834 13.2036C18.9667 12.9055 21.2814 13.4407 23.1963 14.7096C24.6271 15.6577 25.7618 16.9671 26.4927 18.4889C26.9039 19.3449 26.3456 20.2986 25.4278 20.5425C24.5154 20.785 23.5976 20.2234 23.1048 19.4182C22.6491 18.6735 22.032 18.0299 21.2903 17.5384C20.0674 16.7281 18.5893 16.3864 17.1312 16.5767C15.6731 16.7671 14.3345 17.4766 13.3648 18.5732C12.3951 19.6697 11.8604 21.0784 11.8604 22.5369C11.8604 23.9953 12.3951 25.4041 13.3648 26.5006C14.3345 27.5971 15.6731 28.3067 17.1312 28.497C18.5893 28.6874 20.0674 28.3456 21.2903 27.5353C22.032 27.0438 22.6491 26.4003 23.1048 25.6556C23.5976 24.8503 24.5154 24.2888 25.4278 24.5312Z" fill="#802642"/>
<path d="M25.4278 24.5312C26.3456 24.7751 26.9039 25.7288 26.4927 26.5848C25.7618 28.1066 24.6271 29.4161 23.1963 30.3642C21.2814 31.633 18.9667 32.1683 16.6834 31.8702C14.4 31.5721 12.3039 30.461 10.7854 28.7438C9.26692 27.0267 8.42969 24.8208 8.42969 22.5369C8.42969 20.253 9.26692 18.047 10.7854 16.3299C12.3039 14.6128 14.4 13.5017 16.6834 13.2036C18.9667 12.9055 21.2814 13.4407 23.1963 14.7096C24.6271 15.6577 25.7618 16.9671 26.4927 18.4889C26.9039 19.3449 26.3456 20.2986 25.4278 20.5425C24.5154 20.785 23.5976 20.2234 23.1048 19.4182C22.6491 18.6735 22.032 18.0299 21.2903 17.5384C20.0674 16.7281 18.5893 16.3864 17.1312 16.5767C15.6731 16.7671 14.3345 17.4766 13.3648 18.5732C12.3951 19.6697 11.8604 21.0784 11.8604 22.5369C11.8604 23.9953 12.3951 25.4041 13.3648 26.5006C14.3345 27.5971 15.6731 28.3067 17.1312 28.497C18.5893 28.6874 20.0674 28.3456 21.2903 27.5353C22.032 27.0438 22.6491 26.4003 23.1048 25.6556C23.5976 24.8503 24.5154 24.2888 25.4278 24.5312Z" stroke="white" stroke-width="1.40459" mask="url(#path-3-outside-1_1_918)"/>
</svg>
